<?xml version="1.0" encoding="UTF-8" standalone="no"?>
<!DOCTYPE svg PUBLIC "-//W3C//DTD SVG 1.1//EN"
 "http://www.w3.org/Graphics/SVG/1.1/DTD/svg11.dtd">
<!-- Generated by graphviz version 2.26.3 (20100126.1600)
 -->
<!-- Title: G Pages: 1 -->
<svg width="818pt" height="120pt"
 viewBox="0.00 0.00 818.00 120.00" xmlns="http://www.w3.org/2000/svg" xmlns:xlink="http://www.w3.org/1999/xlink">
<g id="graph1" class="graph" transform="scale(1 1) rotate(0) translate(4 116)">
<title>G</title>
<polygon fill="white" stroke="white" points="-4,5 -4,-116 815,-116 815,5 -4,5"/>
<!-- Root -->
<g id="node1" class="node"><title>Root</title>
<ellipse fill="none" stroke="black" cx="400" cy="-93" rx="33.9411" ry="18.3848"/>
<text text-anchor="middle" x="400" y="-89.4" font-family="Times Roman,serif" font-size="14.00">Root</text>
</g>
<!-- Text(&#39;foo &#39;) -->
<g id="node3" class="node"><title>Text(&#39;foo &#39;)</title>
<ellipse fill="none" stroke="black" cx="61" cy="-19" rx="61.0181" ry="18.3848"/>
<text text-anchor="middle" x="61" y="-15.4" font-family="Times Roman,serif" font-size="14.00">Text(&#39;foo &#39;)</text>
</g>
<!-- Root&#45;&gt;Text(&#39;foo &#39;) -->
<g id="edge2" class="edge"><title>Root&#45;&gt;Text(&#39;foo &#39;)</title>
<path fill="none" stroke="black" d="M367.557,-87.0546C316.86,-77.6096 215.867,-58.1723 131,-38 126.073,-36.8288 120.966,-35.5567 115.858,-34.2442"/>
<polygon fill="black" stroke="black" points="116.639,-30.831 106.079,-31.6865 114.868,-37.6032 116.639,-30.831"/>
</g>
<!-- Text(&#39;&lt;em&gt;&#39;) -->
<g id="node5" class="node"><title>Text(&#39;&lt;em&gt;&#39;)</title>
<ellipse fill="none" stroke="black" cx="215" cy="-19" rx="75.1594" ry="18.3848"/>
<text text-anchor="middle" x="215" y="-15.4" font-family="Times Roman,serif" font-size="14.00">Text(&#39;&lt;em&gt;&#39;)</text>
</g>
<!-- Root&#45;&gt;Text(&#39;&lt;em&gt;&#39;) -->
<g id="edge4" class="edge"><title>Root&#45;&gt;Text(&#39;&lt;em&gt;&#39;)</title>
<path fill="none" stroke="black" d="M372.304,-81.9215C343.741,-70.4966 298.613,-52.4453 264.004,-38.6015"/>
<polygon fill="black" stroke="black" points="265.128,-35.2817 254.543,-34.8174 262.528,-41.781 265.128,-35.2817"/>
</g>
<!-- Text(&#39;important&#39;) -->
<g id="node7" class="node"><title>Text(&#39;important&#39;)</title>
<ellipse fill="none" stroke="black" cx="400" cy="-19" rx="91.9239" ry="18.3848"/>
<text text-anchor="middle" x="400" y="-15.4" font-family="Times Roman,serif" font-size="14.00">Text(&#39;important&#39;)</text>
</g>
<!-- Root&#45;&gt;Text(&#39;important&#39;) -->
<g id="edge6" class="edge"><title>Root&#45;&gt;Text(&#39;important&#39;)</title>
<path fill="none" stroke="black" d="M400,-74.3267C400,-66.2639 400,-56.6477 400,-47.7115"/>
<polygon fill="black" stroke="black" points="403.5,-47.6673 400,-37.6674 396.5,-47.6674 403.5,-47.6673"/>
</g>
<!-- Text(&#39;&lt;/em&gt;&#39;) -->
<g id="node9" class="node"><title>Text(&#39;&lt;/em&gt;&#39;)</title>
<ellipse fill="none" stroke="black" cx="588" cy="-19" rx="77.9889" ry="18.3848"/>
<text text-anchor="middle" x="588" y="-15.4" font-family="Times Roman,serif" font-size="14.00">Text(&#39;&lt;/em&gt;&#39;)</text>
</g>
<!-- Root&#45;&gt;Text(&#39;&lt;/em&gt;&#39;) -->
<g id="edge8" class="edge"><title>Root&#45;&gt;Text(&#39;&lt;/em&gt;&#39;)</title>
<path fill="none" stroke="black" d="M427.74,-82.081C456.682,-70.6889 502.675,-52.5852 537.982,-38.6881"/>
<polygon fill="black" stroke="black" points="539.61,-41.8086 547.633,-34.8891 537.046,-35.295 539.61,-41.8086"/>
</g>
<!-- Text(&#39; bar&#39;) -->
<g id="node11" class="node"><title>Text(&#39; bar&#39;)</title>
<ellipse fill="none" stroke="black" cx="747" cy="-19" rx="62.9325" ry="18.3848"/>
<text text-anchor="middle" x="747" y="-15.4" font-family="Times Roman,serif" font-size="14.00">Text(&#39; bar&#39;)</text>
</g>
<!-- Root&#45;&gt;Text(&#39; bar&#39;) -->
<g id="edge10" class="edge"><title>Root&#45;&gt;Text(&#39; bar&#39;)</title>
<path fill="none" stroke="black" d="M432.312,-87.1945C483.843,-77.7887 587.725,-58.2233 675,-38 680.065,-36.8263 685.316,-35.5524 690.569,-34.2388"/>
<polygon fill="black" stroke="black" points="691.798,-37.5378 700.625,-31.6796 690.071,-30.754 691.798,-37.5378"/>
</g>
</g>
</svg>
