<?xml version="1.0" encoding="UTF-8" standalone="no"?>
<!DOCTYPE svg PUBLIC "-//W3C//DTD SVG 1.1//EN"
 "http://www.w3.org/Graphics/SVG/1.1/DTD/svg11.dtd">
<!-- Generated by graphviz version 2.26.3 (20100126.1600)
 -->
<!-- Title: G Pages: 1 -->
<svg width="450pt" height="194pt"
 viewBox="0.00 0.00 450.00 194.00" xmlns="http://www.w3.org/2000/svg" xmlns:xlink="http://www.w3.org/1999/xlink">
<g id="graph1" class="graph" transform="scale(1 1) rotate(0) translate(4 190)">
<title>G</title>
<polygon fill="white" stroke="white" points="-4,5 -4,-190 447,-190 447,5 -4,5"/>
<!-- Root -->
<g id="node1" class="node"><title>Root</title>
<ellipse fill="none" stroke="black" cx="219" cy="-167" rx="33.9411" ry="18.3848"/>
<text text-anchor="middle" x="219" y="-163.4" font-family="Times Roman,serif" font-size="14.00">Root</text>
</g>
<!-- Text(&#39;foo &#39;) -->
<g id="node3" class="node"><title>Text(&#39;foo &#39;)</title>
<ellipse fill="none" stroke="black" cx="61" cy="-93" rx="61.0181" ry="18.3848"/>
<text text-anchor="middle" x="61" y="-89.4" font-family="Times Roman,serif" font-size="14.00">Text(&#39;foo &#39;)</text>
</g>
<!-- Root&#45;&gt;Text(&#39;foo &#39;) -->
<g id="edge2" class="edge"><title>Root&#45;&gt;Text(&#39;foo &#39;)</title>
<path fill="none" stroke="black" d="M192.91,-154.78C168.655,-143.421 132.087,-126.294 103.6,-112.952"/>
<polygon fill="black" stroke="black" points="104.819,-109.658 94.2785,-108.586 101.85,-115.997 104.819,-109.658"/>
</g>
<!-- Macro(&#39;emph&#39;) -->
<g id="node5" class="node"><title>Macro(&#39;emph&#39;)</title>
<ellipse fill="none" stroke="black" cx="219" cy="-93" rx="79.196" ry="18.3848"/>
<text text-anchor="middle" x="219" y="-89.4" font-family="Times Roman,serif" font-size="14.00">Macro(&#39;emph&#39;)</text>
</g>
<!-- Root&#45;&gt;Macro(&#39;emph&#39;) -->
<g id="edge4" class="edge"><title>Root&#45;&gt;Macro(&#39;emph&#39;)</title>
<path fill="none" stroke="black" d="M219,-148.327C219,-140.264 219,-130.648 219,-121.711"/>
<polygon fill="black" stroke="black" points="222.5,-121.667 219,-111.667 215.5,-121.667 222.5,-121.667"/>
</g>
<!-- Text(&#39; bar&#39;) -->
<g id="node7" class="node"><title>Text(&#39; bar&#39;)</title>
<ellipse fill="none" stroke="black" cx="379" cy="-93" rx="62.9325" ry="18.3848"/>
<text text-anchor="middle" x="379" y="-89.4" font-family="Times Roman,serif" font-size="14.00">Text(&#39; bar&#39;)</text>
</g>
<!-- Root&#45;&gt;Text(&#39; bar&#39;) -->
<g id="edge6" class="edge"><title>Root&#45;&gt;Text(&#39; bar&#39;)</title>
<path fill="none" stroke="black" d="M245.063,-154.946C269.673,-143.564 307.03,-126.286 336.044,-112.867"/>
<polygon fill="black" stroke="black" points="337.537,-116.033 345.145,-108.658 334.599,-109.679 337.537,-116.033"/>
</g>
<!-- Text(&#39;important&#39;) -->
<g id="node9" class="node"><title>Text(&#39;important&#39;)</title>
<ellipse fill="none" stroke="black" cx="219" cy="-19" rx="91.9239" ry="18.3848"/>
<text text-anchor="middle" x="219" y="-15.4" font-family="Times Roman,serif" font-size="14.00">Text(&#39;important&#39;)</text>
</g>
<!-- Macro(&#39;emph&#39;)&#45;&gt;Text(&#39;important&#39;) -->
<g id="edge8" class="edge"><title>Macro(&#39;emph&#39;)&#45;&gt;Text(&#39;important&#39;)</title>
<path fill="none" stroke="black" d="M219,-74.3267C219,-66.2639 219,-56.6477 219,-47.7115"/>
<polygon fill="black" stroke="black" points="222.5,-47.6673 219,-37.6674 215.5,-47.6674 222.5,-47.6673"/>
</g>
</g>
</svg>
