<?xml version="1.0" encoding="UTF-8" standalone="no"?>
<!DOCTYPE svg PUBLIC "-//W3C//DTD SVG 1.1//EN"
 "http://www.w3.org/Graphics/SVG/1.1/DTD/svg11.dtd">
<!-- Generated by graphviz version 2.26.3 (20100126.1600)
 -->
<!-- Title: G Pages: 1 -->
<svg width="272pt" height="194pt"
 viewBox="0.00 0.00 272.00 194.00" xmlns="http://www.w3.org/2000/svg" xmlns:xlink="http://www.w3.org/1999/xlink">
<g id="graph1" class="graph" transform="scale(1 1) rotate(0) translate(4 190)">
<title>G</title>
<polygon fill="white" stroke="white" points="-4,5 -4,-190 269,-190 269,5 -4,5"/>
<!-- Root -->
<g id="node1" class="node"><title>Root</title>
<ellipse fill="none" stroke="black" cx="140" cy="-167" rx="33.9411" ry="18.3848"/>
<text text-anchor="middle" x="140" y="-163.4" font-family="Times Roman,serif" font-size="14.00">Root</text>
</g>
<!-- Env(itemize) -->
<g id="node3" class="node"><title>Env(itemize)</title>
<ellipse fill="none" stroke="black" cx="140" cy="-93" rx="73.0388" ry="18.3848"/>
<text text-anchor="middle" x="140" y="-89.4" font-family="Times Roman,serif" font-size="14.00">Env(itemize)</text>
</g>
<!-- Root&#45;&gt;Env(itemize) -->
<g id="edge2" class="edge"><title>Root&#45;&gt;Env(itemize)</title>
<path fill="none" stroke="black" d="M140,-148.327C140,-140.264 140,-130.648 140,-121.711"/>
<polygon fill="black" stroke="black" points="143.5,-121.667 140,-111.667 136.5,-121.667 143.5,-121.667"/>
</g>
<!-- Macro(item) -->
<g id="node5" class="node"><title>Macro(item)</title>
<ellipse fill="none" stroke="black" cx="70" cy="-19" rx="70.0036" ry="18.3848"/>
<text text-anchor="middle" x="70" y="-15.4" font-family="Times Roman,serif" font-size="14.00">Macro(item)</text>
</g>
<!-- Env(itemize)&#45;&gt;Macro(item) -->
<g id="edge4" class="edge"><title>Env(itemize)&#45;&gt;Macro(item)</title>
<path fill="none" stroke="black" d="M122.697,-74.7079C114.05,-65.5674 103.449,-54.3599 94.027,-44.4"/>
<polygon fill="black" stroke="black" points="96.519,-41.9412 87.1043,-37.0817 91.4337,-46.7516 96.519,-41.9412"/>
</g>
<!-- Text(&#39; A&#39;) -->
<g id="node7" class="node"><title>Text(&#39; A&#39;)</title>
<ellipse fill="none" stroke="black" cx="211" cy="-19" rx="53.2379" ry="18.3848"/>
<text text-anchor="middle" x="211" y="-15.4" font-family="Times Roman,serif" font-size="14.00">Text(&#39; A&#39;)</text>
</g>
<!-- Env(itemize)&#45;&gt;Text(&#39; A&#39;) -->
<g id="edge6" class="edge"><title>Env(itemize)&#45;&gt;Text(&#39; A&#39;)</title>
<path fill="none" stroke="black" d="M157.551,-74.7079C166.451,-65.431 177.395,-54.0249 187.057,-43.9549"/>
<polygon fill="black" stroke="black" points="189.742,-46.2112 194.14,-36.5721 184.691,-41.3648 189.742,-46.2112"/>
</g>
</g>
</svg>
