<?xml version="1.0" encoding="UTF-8" standalone="no"?>
<!DOCTYPE svg PUBLIC "-//W3C//DTD SVG 1.1//EN"
 "http://www.w3.org/Graphics/SVG/1.1/DTD/svg11.dtd">
<!-- Generated by graphviz version 2.26.3 (20100126.1600)
 -->
<!-- Title: G Pages: 1 -->
<svg width="848pt" height="194pt"
 viewBox="0.00 0.00 848.00 194.00" xmlns="http://www.w3.org/2000/svg" xmlns:xlink="http://www.w3.org/1999/xlink">
<g id="graph1" class="graph" transform="scale(1 1) rotate(0) translate(4 190)">
<title>G</title>
<polygon fill="white" stroke="white" points="-4,5 -4,-190 845,-190 845,5 -4,5"/>
<!-- Root (Entire Text) -->
<g id="node1" class="node"><title>Root (Entire Text)</title>
<ellipse fill="none" stroke="black" cx="409" cy="-167" rx="97.0803" ry="18.3848"/>
<text text-anchor="middle" x="409" y="-163.4" font-family="Times Roman,serif" font-size="14.00">Root (Entire Text)</text>
</g>
<!-- Macro(rule) -->
<g id="node3" class="node"><title>Macro(rule)</title>
<ellipse fill="none" stroke="black" cx="195" cy="-93" rx="67.1751" ry="18.3848"/>
<text text-anchor="middle" x="195" y="-89.4" font-family="Times Roman,serif" font-size="14.00">Macro(rule)</text>
</g>
<!-- Root (Entire Text)&#45;&gt;Macro(rule) -->
<g id="edge2" class="edge"><title>Root (Entire Text)&#45;&gt;Macro(rule)</title>
<path fill="none" stroke="black" d="M362.037,-150.76C327.961,-138.977 281.873,-123.04 246.74,-110.892"/>
<polygon fill="black" stroke="black" points="247.736,-107.532 237.141,-107.572 245.448,-114.148 247.736,-107.532"/>
</g>
<!-- Text(&#39;\\n&#39;) -->
<g id="node5" class="node"><title>Text(&#39;\\n&#39;)</title>
<ellipse fill="none" stroke="black" cx="337" cy="-93" rx="53.033" ry="18.3848"/>
<text text-anchor="middle" x="337" y="-89.4" font-family="Times Roman,serif" font-size="14.00">Text(&#39;\n&#39;)</text>
</g>
<!-- Root (Entire Text)&#45;&gt;Text(&#39;\\n&#39;) -->
<g id="edge4" class="edge"><title>Root (Entire Text)&#45;&gt;Text(&#39;\\n&#39;)</title>
<path fill="none" stroke="black" d="M391.202,-148.708C382.176,-139.431 371.078,-128.025 361.28,-117.955"/>
<polygon fill="black" stroke="black" points="363.579,-115.299 354.097,-110.572 358.562,-120.18 363.579,-115.299"/>
</g>
<!-- Env(itemize) -->
<g id="node7" class="node"><title>Env(itemize)</title>
<ellipse fill="none" stroke="black" cx="481" cy="-93" rx="73.0388" ry="18.3848"/>
<text text-anchor="middle" x="481" y="-89.4" font-family="Times Roman,serif" font-size="14.00">Env(itemize)</text>
</g>
<!-- Root (Entire Text)&#45;&gt;Env(itemize) -->
<g id="edge6" class="edge"><title>Root (Entire Text)&#45;&gt;Env(itemize)</title>
<path fill="none" stroke="black" d="M426.798,-148.708C435.691,-139.567 446.596,-128.36 456.286,-118.4"/>
<polygon fill="black" stroke="black" points="458.942,-120.69 463.407,-111.082 453.925,-115.808 458.942,-120.69"/>
</g>
<!-- Text(&#39;\\nThe end.&#39;) -->
<g id="node9" class="node"><title>Text(&#39;\\nThe end.&#39;)</title>
<ellipse fill="none" stroke="black" cx="668" cy="-93" rx="96.1665" ry="18.3848"/>
<text text-anchor="middle" x="668" y="-89.4" font-family="Times Roman,serif" font-size="14.00">Text(&#39;\nThe end.&#39;)</text>
</g>
<!-- Root (Entire Text)&#45;&gt;Text(&#39;\\nThe end.&#39;) -->
<g id="edge8" class="edge"><title>Root (Entire Text)&#45;&gt;Text(&#39;\\nThe end.&#39;)</title>
<path fill="none" stroke="black" d="M462.98,-151.577C504.104,-139.827 560.847,-123.615 604.213,-111.225"/>
<polygon fill="black" stroke="black" points="605.436,-114.516 614.09,-108.403 603.513,-107.785 605.436,-114.516"/>
</g>
<!-- Text(1cm) -->
<g id="node11" class="node"><title>Text(1cm)</title>
<ellipse fill="none" stroke="black" cx="59" cy="-19" rx="58.8978" ry="18.3848"/>
<text text-anchor="middle" x="59" y="-15.4" font-family="Times Roman,serif" font-size="14.00">Text(1cm)</text>
</g>
<!-- Macro(rule)&#45;&gt;Text(1cm) -->
<g id="edge10" class="edge"><title>Macro(rule)&#45;&gt;Text(1cm)</title>
<path fill="none" stroke="black" d="M164.479,-76.393C144.695,-65.6283 118.756,-51.5145 97.5522,-39.977"/>
<polygon fill="black" stroke="black" points="98.9418,-36.7485 88.4851,-35.0434 95.5962,-42.8972 98.9418,-36.7485"/>
</g>
<!-- Text(2cm) -->
<g id="node13" class="node"><title>Text(2cm)</title>
<ellipse fill="none" stroke="black" cx="195" cy="-19" rx="58.8978" ry="18.3848"/>
<text text-anchor="middle" x="195" y="-15.4" font-family="Times Roman,serif" font-size="14.00">Text(2cm)</text>
</g>
<!-- Macro(rule)&#45;&gt;Text(2cm) -->
<g id="edge12" class="edge"><title>Macro(rule)&#45;&gt;Text(2cm)</title>
<path fill="none" stroke="black" d="M195,-74.3267C195,-66.2639 195,-56.6477 195,-47.7115"/>
<polygon fill="black" stroke="black" points="198.5,-47.6673 195,-37.6674 191.5,-47.6674 198.5,-47.6673"/>
</g>
<!-- Macro(item) -->
<g id="node15" class="node"><title>Macro(item)</title>
<ellipse fill="none" stroke="black" cx="342" cy="-19" rx="70.0036" ry="18.3848"/>
<text text-anchor="middle" x="342" y="-15.4" font-family="Times Roman,serif" font-size="14.00">Macro(item)</text>
</g>
<!-- Env(itemize)&#45;&gt;Macro(item) -->
<g id="edge14" class="edge"><title>Env(itemize)&#45;&gt;Macro(item)</title>
<path fill="none" stroke="black" d="M449.459,-76.2083C429.554,-65.6115 403.657,-51.8247 382.274,-40.4407"/>
<polygon fill="black" stroke="black" points="383.888,-37.3352 373.416,-35.7253 380.599,-43.5141 383.888,-37.3352"/>
</g>
<!-- Text(&#39;A&#39;) -->
<g id="node17" class="node"><title>Text(&#39;A&#39;)</title>
<ellipse fill="none" stroke="black" cx="481" cy="-19" rx="50.9117" ry="18.3848"/>
<text text-anchor="middle" x="481" y="-15.4" font-family="Times Roman,serif" font-size="14.00">Text(&#39;A&#39;)</text>
</g>
<!-- Env(itemize)&#45;&gt;Text(&#39;A&#39;) -->
<g id="edge16" class="edge"><title>Env(itemize)&#45;&gt;Text(&#39;A&#39;)</title>
<path fill="none" stroke="black" d="M481,-74.3267C481,-66.2639 481,-56.6477 481,-47.7115"/>
<polygon fill="black" stroke="black" points="484.5,-47.6673 481,-37.6674 477.5,-47.6674 484.5,-47.6673"/>
</g>
<!-- Macro(item)  -->
<g id="node19" class="node"><title>Macro(item) </title>
<ellipse fill="none" stroke="black" cx="623" cy="-19" rx="72.832" ry="18.3848"/>
<text text-anchor="middle" x="623" y="-15.4" font-family="Times Roman,serif" font-size="14.00">Macro(item) </text>
</g>
<!-- Env(itemize)&#45;&gt;Macro(item)  -->
<g id="edge18" class="edge"><title>Env(itemize)&#45;&gt;Macro(item) </title>
<path fill="none" stroke="black" d="M513.222,-76.2083C533.556,-65.6115 560.012,-51.8247 581.857,-40.4407"/>
<polygon fill="black" stroke="black" points="583.655,-43.4506 590.906,-35.7253 580.42,-37.2429 583.655,-43.4506"/>
</g>
<!-- Eqn(&#39;x=1&#39;) -->
<g id="node21" class="node"><title>Eqn(&#39;x=1&#39;)</title>
<ellipse fill="none" stroke="black" cx="777" cy="-19" rx="62.9325" ry="18.3848"/>
<text text-anchor="middle" x="777" y="-15.4" font-family="Times Roman,serif" font-size="14.00">Eqn(&#39;x=1&#39;)</text>
</g>
<!-- Env(itemize)&#45;&gt;Eqn(&#39;x=1&#39;) -->
<g id="edge20" class="edge"><title>Env(itemize)&#45;&gt;Eqn(&#39;x=1&#39;)</title>
<path fill="none" stroke="black" d="M534.017,-80.2549C579.446,-69.2687 646.598,-52.8745 705,-38 709.962,-36.7362 715.113,-35.4086 720.274,-34.0672"/>
<polygon fill="black" stroke="black" points="721.376,-37.3969 730.167,-31.4838 719.607,-30.6241 721.376,-37.3969"/>
</g>
</g>
</svg>
