<?xml version="1.0" encoding="UTF-8" standalone="no"?>
<!DOCTYPE svg PUBLIC "-//W3C//DTD SVG 1.1//EN"
 "http://www.w3.org/Graphics/SVG/1.1/DTD/svg11.dtd">
<!-- Generated by graphviz version 2.26.3 (20100126.1600)
 -->
<!-- Title: G Pages: 1 -->
<svg width="594pt" height="120pt"
 viewBox="0.00 0.00 594.00 120.00" xmlns="http://www.w3.org/2000/svg" xmlns:xlink="http://www.w3.org/1999/xlink">
<g id="graph1" class="graph" transform="scale(1 1) rotate(0) translate(4 116)">
<title>G</title>
<polygon fill="white" stroke="white" points="-4,5 -4,-116 591,-116 591,5 -4,5"/>
<!-- Root -->
<g id="node1" class="node"><title>Root</title>
<ellipse fill="none" stroke="black" cx="298" cy="-93" rx="33.9411" ry="18.3848"/>
<text text-anchor="middle" x="298" y="-89.4" font-family="Times Roman,serif" font-size="14.00">Root</text>
</g>
<!-- Text(&#39;&lt;ul&gt;&#39;) -->
<g id="node3" class="node"><title>Text(&#39;&lt;ul&gt;&#39;)</title>
<ellipse fill="none" stroke="black" cx="70" cy="-19" rx="70.0036" ry="18.3848"/>
<text text-anchor="middle" x="70" y="-15.4" font-family="Times Roman,serif" font-size="14.00">Text(&#39;&lt;ul&gt;&#39;)</text>
</g>
<!-- Root&#45;&gt;Text(&#39;&lt;ul&gt;&#39;) -->
<g id="edge2" class="edge"><title>Root&#45;&gt;Text(&#39;&lt;ul&gt;&#39;)</title>
<path fill="none" stroke="black" d="M268.66,-83.4773C232.243,-71.658 169.423,-51.2687 124.163,-36.5791"/>
<polygon fill="black" stroke="black" points="125.093,-33.2014 114.501,-33.4433 122.932,-39.8595 125.093,-33.2014"/>
</g>
<!-- Macro(item) -->
<g id="node5" class="node"><title>Macro(item)</title>
<ellipse fill="none" stroke="black" cx="228" cy="-19" rx="70.0036" ry="18.3848"/>
<text text-anchor="middle" x="228" y="-15.4" font-family="Times Roman,serif" font-size="14.00">Macro(item)</text>
</g>
<!-- Root&#45;&gt;Macro(item) -->
<g id="edge4" class="edge"><title>Root&#45;&gt;Macro(item)</title>
<path fill="none" stroke="black" d="M282.116,-76.2083C273.222,-66.8062 261.953,-54.8928 252.003,-44.3746"/>
<polygon fill="black" stroke="black" points="254.459,-41.8777 245.044,-37.0182 249.374,-46.6881 254.459,-41.8777"/>
</g>
<!-- Text(&#39; A&#39;) -->
<g id="node7" class="node"><title>Text(&#39; A&#39;)</title>
<ellipse fill="none" stroke="black" cx="369" cy="-19" rx="53.2379" ry="18.3848"/>
<text text-anchor="middle" x="369" y="-15.4" font-family="Times Roman,serif" font-size="14.00">Text(&#39; A&#39;)</text>
</g>
<!-- Root&#45;&gt;Text(&#39; A&#39;) -->
<g id="edge6" class="edge"><title>Root&#45;&gt;Text(&#39; A&#39;)</title>
<path fill="none" stroke="black" d="M313.757,-76.577C322.896,-67.0517 334.595,-54.8586 344.872,-44.1473"/>
<polygon fill="black" stroke="black" points="347.65,-46.308 352.047,-36.669 342.598,-41.4617 347.65,-46.308"/>
</g>
<!-- Text(&#39;&lt;/ul&gt;&#39;) -->
<g id="node9" class="node"><title>Text(&#39;&lt;/ul&gt;&#39;)</title>
<ellipse fill="none" stroke="black" cx="513" cy="-19" rx="72.832" ry="18.3848"/>
<text text-anchor="middle" x="513" y="-15.4" font-family="Times Roman,serif" font-size="14.00">Text(&#39;&lt;/ul&gt;&#39;)</text>
</g>
<!-- Root&#45;&gt;Text(&#39;&lt;/ul&gt;&#39;) -->
<g id="edge8" class="edge"><title>Root&#45;&gt;Text(&#39;&lt;/ul&gt;&#39;)</title>
<path fill="none" stroke="black" d="M326.996,-83.02C361.024,-71.3081 418.127,-51.6541 460.105,-37.2058"/>
<polygon fill="black" stroke="black" points="461.304,-40.4945 469.621,-33.9305 459.026,-33.8756 461.304,-40.4945"/>
</g>
</g>
</svg>
